<mxfile host="app.diagrams.net" modified="2021-10-29T07:04:18.099Z" agent="5.0 (Macintosh; Intel Mac OS X 10_15_7) AppleWebKit/537.36 (KHTML, like Gecko) Chrome/95.0.4638.54 Safari/537.36" etag="Y6t04bUndgC5eS8bXODM" version="15.6.2" type="github">
  <diagram name="Page-1" id="74b105a0-9070-1c63-61bc-23e55f88626e">
    <mxGraphModel dx="2037" dy="1099" grid="1" gridSize="10" guides="1" tooltips="1" connect="1" arrows="1" fold="1" page="1" pageScale="1.5" pageWidth="1169" pageHeight="826" background="none" math="0" shadow="0">
      <root>
        <mxCell id="0" style=";html=1;" />
        <mxCell id="1" style=";html=1;" parent="0" />
        <mxCell id="BGo7628wnJxuzBVJ0hRG-56" value="" style="rounded=0;whiteSpace=wrap;html=1;fontSize=20;" vertex="1" parent="1">
          <mxGeometry x="550" y="20" width="470" height="320" as="geometry" />
        </mxCell>
        <mxCell id="BGo7628wnJxuzBVJ0hRG-67" value="" style="strokeWidth=2;dashed=0;align=center;fontSize=14;shape=rect;verticalLabelPosition=bottom;verticalAlign=top;fillColor=#c0f5a9" vertex="1" parent="1">
          <mxGeometry x="670" y="230" width="150" height="90" as="geometry" />
        </mxCell>
        <mxCell id="BGo7628wnJxuzBVJ0hRG-42" value="" style="rounded=0;whiteSpace=wrap;html=1;fontSize=20;" vertex="1" parent="1">
          <mxGeometry x="550" y="360" width="910" height="630" as="geometry" />
        </mxCell>
        <mxCell id="BGo7628wnJxuzBVJ0hRG-32" value="" style="rounded=0;whiteSpace=wrap;html=1;fontSize=20;fillColor=#dae8fc;strokeColor=#6c8ebf;" vertex="1" parent="1">
          <mxGeometry x="570" y="570" width="330" height="180" as="geometry" />
        </mxCell>
        <mxCell id="BGo7628wnJxuzBVJ0hRG-28" value="" style="whiteSpace=wrap;html=1;aspect=fixed;fontSize=16;fillColor=#f8cecc;strokeColor=#b85450;" vertex="1" parent="1">
          <mxGeometry x="920" y="420" width="520" height="520" as="geometry" />
        </mxCell>
        <mxCell id="10b056a9c633e61c-4" value="datetime.py" style="strokeWidth=2;dashed=0;align=center;fontSize=14;shape=rect;verticalLabelPosition=bottom;verticalAlign=top;fillColor=#c0f5a9" parent="1" vertex="1">
          <mxGeometry x="1130" y="560" width="150" height="90" as="geometry" />
        </mxCell>
        <mxCell id="BGo7628wnJxuzBVJ0hRG-1" value="&lt;font style=&quot;font-size: 15px&quot;&gt;NumericColumn&lt;/font&gt;" style="text;html=1;strokeColor=none;fillColor=none;align=center;verticalAlign=middle;whiteSpace=wrap;rounded=0;" vertex="1" parent="1">
          <mxGeometry x="1130" y="590" width="150" height="30" as="geometry" />
        </mxCell>
        <mxCell id="BGo7628wnJxuzBVJ0hRG-2" value="datetime.py" style="strokeWidth=2;dashed=0;align=center;fontSize=14;shape=rect;verticalLabelPosition=bottom;verticalAlign=top;fillColor=#c0f5a9" vertex="1" parent="1">
          <mxGeometry x="1130" y="810" width="150" height="90" as="geometry" />
        </mxCell>
        <mxCell id="BGo7628wnJxuzBVJ0hRG-3" value="&lt;font style=&quot;font-size: 16px&quot;&gt;DateColumn&lt;/font&gt;" style="text;html=1;strokeColor=none;fillColor=none;align=center;verticalAlign=middle;whiteSpace=wrap;rounded=0;" vertex="1" parent="1">
          <mxGeometry x="1130" y="840" width="150" height="30" as="geometry" />
        </mxCell>
        <mxCell id="BGo7628wnJxuzBVJ0hRG-4" value="text.py" style="strokeWidth=2;dashed=0;align=center;fontSize=14;shape=rect;verticalLabelPosition=bottom;verticalAlign=top;fillColor=#c0f5a9" vertex="1" parent="1">
          <mxGeometry x="1130" y="680" width="150" height="90" as="geometry" />
        </mxCell>
        <mxCell id="BGo7628wnJxuzBVJ0hRG-5" value="&lt;font style=&quot;font-size: 16px&quot;&gt;TextColumn&lt;/font&gt;" style="text;html=1;strokeColor=none;fillColor=none;align=center;verticalAlign=middle;whiteSpace=wrap;rounded=0;" vertex="1" parent="1">
          <mxGeometry x="1130" y="710" width="150" height="30" as="geometry" />
        </mxCell>
        <mxCell id="BGo7628wnJxuzBVJ0hRG-6" value="data.py" style="strokeWidth=2;dashed=0;align=center;fontSize=14;shape=rect;verticalLabelPosition=bottom;verticalAlign=top;fillColor=#c0f5a9" vertex="1" parent="1">
          <mxGeometry x="1130" y="440" width="150" height="90" as="geometry" />
        </mxCell>
        <mxCell id="BGo7628wnJxuzBVJ0hRG-7" value="&lt;font style=&quot;font-size: 15px&quot;&gt;Dataset&lt;/font&gt;" style="text;html=1;strokeColor=none;fillColor=none;align=center;verticalAlign=middle;whiteSpace=wrap;rounded=0;" vertex="1" parent="1">
          <mxGeometry x="1130" y="470" width="150" height="30" as="geometry" />
        </mxCell>
        <mxCell id="BGo7628wnJxuzBVJ0hRG-15" value="" style="endArrow=none;html=1;rounded=0;fontSize=14;" edge="1" parent="1">
          <mxGeometry width="50" height="50" relative="1" as="geometry">
            <mxPoint x="1000" y="850" as="sourcePoint" />
            <mxPoint x="1000" y="480" as="targetPoint" />
          </mxGeometry>
        </mxCell>
        <mxCell id="BGo7628wnJxuzBVJ0hRG-17" value="" style="endArrow=none;html=1;rounded=0;fontSize=16;entryX=0;entryY=0.5;entryDx=0;entryDy=0;" edge="1" parent="1" target="BGo7628wnJxuzBVJ0hRG-5">
          <mxGeometry width="50" height="50" relative="1" as="geometry">
            <mxPoint x="1000" y="725" as="sourcePoint" />
            <mxPoint x="950" y="700" as="targetPoint" />
          </mxGeometry>
        </mxCell>
        <mxCell id="BGo7628wnJxuzBVJ0hRG-18" value="" style="endArrow=none;html=1;rounded=0;fontSize=16;entryX=0;entryY=0.5;entryDx=0;entryDy=0;" edge="1" parent="1">
          <mxGeometry width="50" height="50" relative="1" as="geometry">
            <mxPoint x="1000.0000000000005" y="610" as="sourcePoint" />
            <mxPoint x="1129.9999999999995" y="610" as="targetPoint" />
          </mxGeometry>
        </mxCell>
        <mxCell id="BGo7628wnJxuzBVJ0hRG-19" value="" style="endArrow=none;html=1;rounded=0;fontSize=16;entryX=0;entryY=0.5;entryDx=0;entryDy=0;" edge="1" parent="1">
          <mxGeometry width="50" height="50" relative="1" as="geometry">
            <mxPoint x="1000.0000000000005" y="850" as="sourcePoint" />
            <mxPoint x="1129.9999999999995" y="850" as="targetPoint" />
          </mxGeometry>
        </mxCell>
        <mxCell id="BGo7628wnJxuzBVJ0hRG-20" value="" style="endArrow=none;html=1;rounded=0;fontSize=16;entryX=0;entryY=0.5;entryDx=0;entryDy=0;" edge="1" parent="1">
          <mxGeometry width="50" height="50" relative="1" as="geometry">
            <mxPoint x="1000.0000000000005" y="484.29" as="sourcePoint" />
            <mxPoint x="1129.9999999999995" y="484.29" as="targetPoint" />
          </mxGeometry>
        </mxCell>
        <mxCell id="BGo7628wnJxuzBVJ0hRG-21" value="" style="endArrow=classic;html=1;rounded=0;fontSize=16;" edge="1" parent="1">
          <mxGeometry width="50" height="50" relative="1" as="geometry">
            <mxPoint x="1000" y="670" as="sourcePoint" />
            <mxPoint x="830" y="670" as="targetPoint" />
          </mxGeometry>
        </mxCell>
        <mxCell id="BGo7628wnJxuzBVJ0hRG-24" value="" style="strokeWidth=2;dashed=0;align=center;fontSize=14;shape=rect;verticalLabelPosition=bottom;verticalAlign=top;fillColor=#c0f5a9" vertex="1" parent="1">
          <mxGeometry x="670" y="630" width="150" height="90" as="geometry" />
        </mxCell>
        <mxCell id="BGo7628wnJxuzBVJ0hRG-25" value="&lt;font style=&quot;font-size: 15px&quot;&gt;streamlit_app.py&lt;/font&gt;" style="text;html=1;strokeColor=none;fillColor=none;align=center;verticalAlign=middle;whiteSpace=wrap;rounded=0;" vertex="1" parent="1">
          <mxGeometry x="670" y="660" width="150" height="30" as="geometry" />
        </mxCell>
        <mxCell id="BGo7628wnJxuzBVJ0hRG-29" value="&lt;b&gt;&lt;font style=&quot;font-size: 20px&quot;&gt;src&lt;/font&gt;&lt;/b&gt;" style="text;html=1;strokeColor=none;fillColor=none;align=center;verticalAlign=middle;whiteSpace=wrap;rounded=0;fontSize=16;" vertex="1" parent="1">
          <mxGeometry x="1360" y="430" width="60" height="30" as="geometry" />
        </mxCell>
        <mxCell id="BGo7628wnJxuzBVJ0hRG-31" value="&lt;b&gt;&lt;font style=&quot;font-size: 20px&quot;&gt;app&lt;/font&gt;&lt;/b&gt;" style="text;html=1;strokeColor=none;fillColor=none;align=center;verticalAlign=middle;whiteSpace=wrap;rounded=0;fontSize=16;" vertex="1" parent="1">
          <mxGeometry x="830" y="580" width="60" height="30" as="geometry" />
        </mxCell>
        <mxCell id="BGo7628wnJxuzBVJ0hRG-38" value="" style="endArrow=classic;html=1;rounded=0;fontSize=20;exitX=0.5;exitY=0;exitDx=0;exitDy=0;" edge="1" parent="1" source="BGo7628wnJxuzBVJ0hRG-24">
          <mxGeometry width="50" height="50" relative="1" as="geometry">
            <mxPoint x="900" y="750" as="sourcePoint" />
            <mxPoint x="745" y="540" as="targetPoint" />
          </mxGeometry>
        </mxCell>
        <mxCell id="BGo7628wnJxuzBVJ0hRG-39" value="" style="strokeWidth=2;dashed=0;align=center;fontSize=14;shape=rect;verticalLabelPosition=bottom;verticalAlign=top;fillColor=#c0f5a9" vertex="1" parent="1">
          <mxGeometry x="670" y="440" width="150" height="90" as="geometry" />
        </mxCell>
        <mxCell id="BGo7628wnJxuzBVJ0hRG-40" value="&lt;font style=&quot;font-size: 15px&quot;&gt;Dockerfile&lt;/font&gt;" style="text;html=1;strokeColor=none;fillColor=none;align=center;verticalAlign=middle;whiteSpace=wrap;rounded=0;" vertex="1" parent="1">
          <mxGeometry x="670" y="470" width="150" height="30" as="geometry" />
        </mxCell>
        <mxCell id="BGo7628wnJxuzBVJ0hRG-43" value="&lt;b&gt;&lt;font style=&quot;font-size: 20px&quot;&gt;Data_Explorer_Web_App&lt;/font&gt;&lt;/b&gt;" style="text;html=1;strokeColor=none;fillColor=none;align=center;verticalAlign=middle;whiteSpace=wrap;rounded=0;fontSize=16;" vertex="1" parent="1">
          <mxGeometry x="1180" y="370" width="260" height="30" as="geometry" />
        </mxCell>
        <mxCell id="BGo7628wnJxuzBVJ0hRG-62" value="" style="edgeStyle=orthogonalEdgeStyle;rounded=0;orthogonalLoop=1;jettySize=auto;html=1;fontSize=20;" edge="1" parent="1" source="BGo7628wnJxuzBVJ0hRG-48" target="BGo7628wnJxuzBVJ0hRG-61">
          <mxGeometry relative="1" as="geometry" />
        </mxCell>
        <mxCell id="BGo7628wnJxuzBVJ0hRG-48" value="" style="strokeWidth=2;dashed=0;align=center;fontSize=14;shape=rect;verticalLabelPosition=bottom;verticalAlign=top;fillColor=#c0f5a9" vertex="1" parent="1">
          <mxGeometry x="840" y="70" width="150" height="90" as="geometry" />
        </mxCell>
        <mxCell id="BGo7628wnJxuzBVJ0hRG-50" value="&lt;font style=&quot;font-size: 15px&quot;&gt;Image&lt;/font&gt;" style="text;html=1;strokeColor=none;fillColor=none;align=center;verticalAlign=middle;whiteSpace=wrap;rounded=0;" vertex="1" parent="1">
          <mxGeometry x="850" y="100" width="150" height="30" as="geometry" />
        </mxCell>
        <mxCell id="BGo7628wnJxuzBVJ0hRG-51" value="" style="strokeWidth=2;dashed=0;align=center;fontSize=14;shape=rect;verticalLabelPosition=bottom;verticalAlign=top;fillColor=#c0f5a9" vertex="1" parent="1">
          <mxGeometry x="1140" y="240" width="150" height="90" as="geometry" />
        </mxCell>
        <mxCell id="BGo7628wnJxuzBVJ0hRG-55" value="&lt;font style=&quot;font-size: 15px&quot;&gt;Docker Registry&lt;/font&gt;" style="text;html=1;strokeColor=none;fillColor=none;align=center;verticalAlign=middle;whiteSpace=wrap;rounded=0;" vertex="1" parent="1">
          <mxGeometry x="1140" y="270" width="150" height="30" as="geometry" />
        </mxCell>
        <mxCell id="BGo7628wnJxuzBVJ0hRG-59" value="&lt;b&gt;&lt;font style=&quot;font-size: 20px&quot;&gt;Docker Host&lt;/font&gt;&lt;/b&gt;" style="text;html=1;strokeColor=none;fillColor=none;align=center;verticalAlign=middle;whiteSpace=wrap;rounded=0;fontSize=16;" vertex="1" parent="1">
          <mxGeometry x="795" y="30" width="260" height="30" as="geometry" />
        </mxCell>
        <mxCell id="BGo7628wnJxuzBVJ0hRG-61" value="" style="strokeWidth=2;dashed=0;align=center;fontSize=14;shape=rect;verticalLabelPosition=bottom;verticalAlign=top;fillColor=#c0f5a9" vertex="1" parent="1">
          <mxGeometry x="580" y="70" width="150" height="90" as="geometry" />
        </mxCell>
        <mxCell id="BGo7628wnJxuzBVJ0hRG-63" value="&lt;font style=&quot;font-size: 15px&quot;&gt;Container&lt;/font&gt;" style="text;html=1;strokeColor=none;fillColor=none;align=center;verticalAlign=middle;whiteSpace=wrap;rounded=0;" vertex="1" parent="1">
          <mxGeometry x="580" y="100" width="150" height="30" as="geometry" />
        </mxCell>
        <mxCell id="BGo7628wnJxuzBVJ0hRG-65" value="" style="endArrow=classic;html=1;rounded=0;fontSize=20;entryX=0.5;entryY=1;entryDx=0;entryDy=0;exitX=0.5;exitY=0;exitDx=0;exitDy=0;" edge="1" parent="1" source="BGo7628wnJxuzBVJ0hRG-39" target="BGo7628wnJxuzBVJ0hRG-67">
          <mxGeometry width="50" height="50" relative="1" as="geometry">
            <mxPoint x="740" y="440" as="sourcePoint" />
            <mxPoint x="790" y="390" as="targetPoint" />
          </mxGeometry>
        </mxCell>
        <mxCell id="BGo7628wnJxuzBVJ0hRG-66" value="&lt;font style=&quot;font-size: 15px&quot;&gt;Docker Daemon&lt;/font&gt;" style="text;html=1;strokeColor=none;fillColor=none;align=center;verticalAlign=middle;whiteSpace=wrap;rounded=0;" vertex="1" parent="1">
          <mxGeometry x="670" y="260" width="150" height="30" as="geometry" />
        </mxCell>
        <mxCell id="BGo7628wnJxuzBVJ0hRG-68" value="" style="endArrow=classic;html=1;rounded=0;fontSize=20;exitX=1;exitY=0.75;exitDx=0;exitDy=0;entryX=0;entryY=0.5;entryDx=0;entryDy=0;" edge="1" parent="1" source="BGo7628wnJxuzBVJ0hRG-66" target="BGo7628wnJxuzBVJ0hRG-55">
          <mxGeometry width="50" height="50" relative="1" as="geometry">
            <mxPoint x="900" y="470" as="sourcePoint" />
            <mxPoint x="950" y="420" as="targetPoint" />
          </mxGeometry>
        </mxCell>
        <mxCell id="BGo7628wnJxuzBVJ0hRG-69" value="" style="endArrow=classic;html=1;rounded=0;fontSize=20;exitX=0.5;exitY=0;exitDx=0;exitDy=0;entryX=0.601;entryY=1.027;entryDx=0;entryDy=0;entryPerimeter=0;" edge="1" parent="1" source="BGo7628wnJxuzBVJ0hRG-67" target="BGo7628wnJxuzBVJ0hRG-48">
          <mxGeometry width="50" height="50" relative="1" as="geometry">
            <mxPoint x="900" y="470" as="sourcePoint" />
            <mxPoint x="950" y="420" as="targetPoint" />
          </mxGeometry>
        </mxCell>
        <mxCell id="BGo7628wnJxuzBVJ0hRG-70" value="" style="endArrow=classic;html=1;rounded=0;fontSize=20;exitX=0.5;exitY=0;exitDx=0;exitDy=0;" edge="1" parent="1" source="BGo7628wnJxuzBVJ0hRG-51">
          <mxGeometry width="50" height="50" relative="1" as="geometry">
            <mxPoint x="900" y="470" as="sourcePoint" />
            <mxPoint x="990" y="115" as="targetPoint" />
          </mxGeometry>
        </mxCell>
      </root>
    </mxGraphModel>
  </diagram>
</mxfile>
